<svg xmlns="http://www.w3.org/2000/svg" width="24" height="24" viewBox="0 0 24 24">
    <g fill="none" fill-rule="nonzero">
        <circle cx="12" cy="12" r="12" fill="#F0F0F0"/>
        <path fill="#FF9811" d="M12 0A12 12 0 0 0 1.19 6.783h21.62A12 12 0 0 0 12 0z"/>
        <path fill="#6DA544" d="M12 24a12 12 0 0 0 10.81-6.783H1.19A12 12 0 0 0 12 24z"/>
        <circle cx="12" cy="12" r="4.174" fill="#0052B4"/>
        <circle cx="12" cy="12" r="2.609" fill="#F0F0F0"/>
        <path fill="#0052B4" d="M12 8.78l.805 1.826 1.983-.216L13.61 12l1.178 1.61-1.983-.216L12 15.219l-.805-1.825-1.983.216L10.39 12l-1.178-1.61 1.983.216z"/>
    </g>
</svg>
