<svg xmlns="http://www.w3.org/2000/svg" width="24" height="24" viewBox="0 0 24 24">
    <g fill="none" fill-rule="nonzero">
        <path fill="#6DA544" d="M0 12c0 5.16 3.256 9.558 7.826 11.254L8.87 12 7.826.746C3.256 2.442 0 6.84 0 12z"/>
        <path fill="#D80027" d="M24 12c0-6.627-5.373-12-12-12-1.468 0-2.874.264-4.174.746v22.508c1.3.482 2.706.746 4.174.746 6.627 0 12-5.373 12-12z"/>
        <circle cx="7.826" cy="12" r="4.174" fill="#FFDA44"/>
        <path fill="#D80027" d="M5.478 9.913v2.609a2.348 2.348 0 1 0 4.696 0V9.913H5.478z"/>
        <path fill="#F0F0F0" d="M7.826 13.304a.784.784 0 0 1-.783-.782v-1.044H8.61v1.044a.784.784 0 0 1-.783.782z"/>
    </g>
</svg>
